<svg width="24" height="24" viewBox="0 0 24 24" fill="none" xmlns="http://www.w3.org/2000/svg">
<path d="M6.37891 3.81641V20.4233C6.37891 21.9083 8.89516 23.112 12.0002 23.112C15.1052 23.112 17.6214 21.9083 17.6214 20.4233V3.81641H6.37891Z" fill="#8DCC47"/>
<path d="M17.6233 3.81758C17.6233 5.58758 14.6627 6.69945 12.0021 6.69945C9.41082 6.69945 6.56083 5.58195 6.38083 3.81758C6.1877 1.91633 8.89707 0.611328 12.0021 0.611328C15.1071 0.611328 17.6233 2.04758 17.6233 3.81758Z" fill="#9EE350"/>
<path d="M12.038 5.43273C14.486 5.43273 16.4705 4.47322 16.4705 3.28961C16.4705 2.10599 14.486 1.14648 12.038 1.14648C9.58997 1.14648 7.60547 2.10599 7.60547 3.28961C7.60547 4.47322 9.58997 5.43273 12.038 5.43273Z" fill="#D9D9D9"/>
<path d="M14.3555 1.20703V1.33078C14.3611 1.25391 14.3555 1.20703 14.3555 1.20703Z" fill="#9E9E9E"/>
<path d="M14.4353 9.66363C14.4353 9.53988 14.3884 9.46488 14.2741 9.41988C14.1672 9.37676 14.0116 9.42176 13.8522 9.46301C13.5372 9.54176 13.2128 9.58676 12.9203 9.58301C12.8022 9.58113 12.8134 9.46863 12.8134 9.36551V8.33801C12.8134 8.22551 12.8003 8.08301 12.5922 8.08301C12.4666 8.08301 12.3147 8.11676 11.9978 8.12051C11.6809 8.11863 11.5291 8.08301 11.4034 8.08301C11.1953 8.08301 11.1822 8.22551 11.1822 8.33801V9.36551C11.1822 9.46863 11.1934 9.58113 11.0753 9.58301C10.7828 9.58676 10.4584 9.54176 10.1434 9.46301C9.98219 9.42363 9.82844 9.37863 9.72156 9.41988C9.60719 9.46676 9.56031 9.53988 9.56031 9.66363L9.55469 10.618C9.60719 10.7661 9.66156 10.873 9.72156 10.9049C9.89781 10.9968 10.2822 11.1374 10.8972 11.1674C11.0191 11.173 11.1559 11.1318 11.1841 11.2649C11.1972 11.3305 11.1841 12.1405 11.1841 12.4686C11.1841 12.7668 11.6153 12.7986 11.8478 12.8174C11.8984 12.8211 12.1009 12.8211 12.1497 12.8174C12.3803 12.7968 12.8134 12.7668 12.8134 12.4686C12.8134 12.1405 12.8003 11.3305 12.8134 11.2649C12.8416 11.1318 12.9766 11.173 13.1003 11.1674C13.7153 11.1374 14.0997 10.9949 14.2759 10.9049C14.3341 10.8749 14.3903 10.768 14.4428 10.618L14.4353 9.66363ZM14.0753 19.2299C14.0753 19.2299 13.3534 19.4493 11.9997 19.4493C10.6459 19.4493 9.92406 19.2299 9.92406 19.2299C9.66719 19.1924 9.55844 19.393 9.55844 19.5955V20.3868C9.55844 20.5743 9.68031 20.7486 9.89781 20.8555C10.3459 21.0768 11.0697 21.2268 11.9359 21.2174C11.9584 21.2174 11.9791 21.2155 12.0016 21.2155C12.0241 21.2155 12.0447 21.2174 12.0672 21.2174C12.9353 21.2268 13.6572 21.0768 14.1053 20.8555C14.3228 20.7486 14.4447 20.5743 14.4447 20.3868V19.5955C14.4428 19.393 14.3322 19.1924 14.0753 19.2299Z" fill="white"/>
<path d="M10.9852 5.21525C11.2852 4.9265 10.2052 4.67713 9.69523 4.50275C9.05398 4.28338 8.38273 3.89713 8.17836 3.1415C8.02461 2.5715 7.75648 2.74963 7.70773 2.81713C7.63836 2.91275 7.37023 3.4715 7.88586 4.09213C8.24023 4.51963 8.81398 4.844 9.30336 5.009C9.97273 5.23588 10.7865 5.4065 10.9852 5.21525ZM10.4996 2.47213C10.5615 2.26213 11.1052 2.13275 11.4352 2.129C11.9996 2.1215 12.5809 2.55463 12.6671 2.70275C12.909 3.11525 12.3577 3.2615 11.394 3.17713C10.7452 3.12088 10.4377 2.684 10.4996 2.47213Z" fill="#F5F5F5"/>
<path d="M13.7086 2.81321C13.643 2.69696 13.5755 2.57509 13.5117 2.45696C13.4442 2.33509 13.4461 2.46634 13.4311 2.51696C13.3542 2.78321 13.2024 2.90134 13.0955 2.95946C12.773 3.13196 12.3867 3.21446 12.0024 3.20884C11.6161 3.21259 11.2317 3.13196 10.9092 2.95946C10.8005 2.90134 10.6505 2.78321 10.5736 2.51696C10.5586 2.46446 10.5605 2.33509 10.493 2.45696C10.4274 2.57509 10.3617 2.69696 10.2961 2.81321C10.1274 3.10946 10.2736 3.43759 10.4892 3.64759C10.8661 4.01321 11.4511 4.18196 12.0042 4.18196C12.5574 4.18196 13.1424 4.01321 13.5192 3.64759C13.733 3.43571 13.8774 3.10759 13.7086 2.81321Z" fill="#9E9E9E"/>
</svg>
