<svg width="24" height="24" viewBox="0 0 24 24" fill="none" xmlns="http://www.w3.org/2000/svg">
<mask id="path-1-inside-1_470_533" fill="white">
<path d="M12 20.4023C12.294 20.4023 12.5777 20.5102 12.7973 20.7056C13.017 20.9009 13.1573 21.17 13.1917 21.462L13.2001 21.6024V22.8025C13.1998 23.1084 13.0827 23.4026 12.8727 23.6251C12.6627 23.8475 12.3757 23.9813 12.0703 23.9993C11.765 24.0172 11.4643 23.9178 11.2297 23.7215C10.9951 23.5252 10.8444 23.2467 10.8083 22.9429L10.7999 22.8025V21.6024C10.7999 21.2841 10.9263 20.9788 11.1514 20.7538C11.3764 20.5287 11.6817 20.4023 12 20.4023ZM19.5764 17.894L19.6893 17.9936L20.5293 18.8337C20.7446 19.0497 20.8696 19.3395 20.8789 19.6442C20.8882 19.949 20.7811 20.2459 20.5795 20.4746C20.3778 20.7033 20.0966 20.8467 19.7931 20.8756C19.4896 20.9045 19.1864 20.8168 18.9452 20.6303L18.8324 20.5307L17.9923 19.6906C17.7852 19.4838 17.6607 19.2086 17.6424 18.9165C17.624 18.6244 17.713 18.3357 17.8926 18.1047C18.0722 17.8737 18.33 17.7162 18.6175 17.6619C18.9051 17.6076 19.2026 17.6603 19.454 17.81L19.5764 17.894ZM6.00774 17.9936C6.21437 18.2002 6.3385 18.4752 6.35684 18.7669C6.37518 19.0585 6.28647 19.3469 6.10735 19.5778L6.00774 19.6906L5.16764 20.5307C4.95167 20.7459 4.66187 20.8709 4.35709 20.8802C4.05232 20.8895 3.75543 20.7824 3.52673 20.5808C3.29802 20.3791 3.15465 20.098 3.12574 19.7944C3.09682 19.4909 3.18453 19.1877 3.37104 18.9465L3.47066 18.8337L4.31075 17.9936C4.53581 17.7686 4.84101 17.6422 5.15924 17.6422C5.47747 17.6422 5.78268 17.7686 6.00774 17.9936ZM2.39894 10.8012C2.70483 10.8015 2.99904 10.9187 3.22147 11.1287C3.4439 11.3386 3.57775 11.6256 3.59568 11.931C3.6136 12.2364 3.51425 12.537 3.31792 12.7716C3.12159 13.0062 2.8431 13.1569 2.53935 13.1931L2.39894 13.2015H1.1988C0.892914 13.2011 0.598698 13.084 0.37627 12.874C0.153842 12.664 0.0199908 12.377 0.00206427 12.0717C-0.0158623 11.7663 0.0834893 11.4656 0.279819 11.231C0.476149 10.9965 0.754639 10.8457 1.05839 10.8096L1.1988 10.8012H2.39894ZM22.8012 10.8012C23.1071 10.8015 23.4013 10.9187 23.6237 11.1287C23.8462 11.3386 23.98 11.6256 23.9979 11.931C24.0159 12.2364 23.9165 12.537 23.7202 12.7716C23.5239 13.0062 23.2454 13.1569 22.9416 13.1931L22.8012 13.2015H21.6011C21.2952 13.2011 21.001 13.084 20.7785 12.874C20.5561 12.664 20.4223 12.377 20.4043 12.0717C20.3864 11.7663 20.4857 11.4656 20.6821 11.231C20.8784 10.9965 21.1569 10.8457 21.4606 10.8096L21.6011 10.8012H22.8012ZM5.05483 3.37237L5.16764 3.47198L6.00774 4.31208C6.22298 4.52805 6.34794 4.81786 6.35725 5.12263C6.36656 5.4274 6.25951 5.72429 6.05784 5.95299C5.85618 6.1817 5.57503 6.32507 5.27149 6.35398C4.96794 6.3829 4.66478 6.29519 4.42356 6.10868L4.31075 6.00907L3.47066 5.16897C3.26434 4.96217 3.14054 4.68721 3.12246 4.39565C3.10437 4.10408 3.19326 3.81594 3.37244 3.58522C3.55162 3.35451 3.8088 3.19707 4.09577 3.14242C4.38273 3.08777 4.67978 3.13966 4.93122 3.28836L5.05483 3.37237ZM20.5293 3.47198C20.736 3.67864 20.8601 3.95359 20.8784 4.24525C20.8968 4.53692 20.8081 4.82525 20.629 5.05616L20.5293 5.16897L19.6893 6.00907C19.4733 6.22431 19.1835 6.34927 18.8787 6.35858C18.5739 6.36788 18.277 6.26084 18.0483 6.05917C17.8196 5.85751 17.6763 5.57636 17.6473 5.27281C17.6184 4.96927 17.7061 4.66611 17.8927 4.42489L17.9923 4.31208L18.8324 3.47198C19.0574 3.24699 19.3626 3.1206 19.6809 3.1206C19.9991 3.1206 20.3043 3.24699 20.5293 3.47198ZM12 0C12.294 3.8777e-05 12.5777 0.107959 12.7973 0.303292C13.017 0.498625 13.1573 0.767784 13.1917 1.05972L13.2001 1.20013V2.40027C13.1998 2.70616 13.0827 3.00037 12.8727 3.2228C12.6627 3.44523 12.3757 3.57908 12.0703 3.597C11.765 3.61493 11.4643 3.51558 11.2297 3.31925C10.9951 3.12292 10.8444 2.84443 10.8083 2.54068L10.7999 2.40027V1.20013C10.7999 0.881838 10.9263 0.576579 11.1514 0.351511C11.3764 0.126442 11.6817 0 12 0ZM12 6.00066C13.1757 6.0006 14.3256 6.34593 15.3068 6.99377C16.2879 7.64162 17.0571 8.56342 17.5189 9.6447C17.9806 10.726 18.1146 11.9191 17.904 13.0758C17.6935 14.2326 17.1478 15.302 16.3347 16.1512C15.5216 17.0005 14.4769 17.5921 13.3304 17.8527C12.1839 18.1133 10.9861 18.0314 9.88577 17.6171C8.78545 17.2027 7.83108 16.4743 7.14121 15.5222C6.45134 14.5702 6.05636 13.4364 6.00534 12.2618L5.99934 12.0013L6.00534 11.7409C6.07245 10.196 6.73335 8.7367 7.85021 7.66724C8.96707 6.59778 10.4537 6.00075 12 6.00066Z"/>
</mask>
<path d="M12 20.4023C12.294 20.4023 12.5777 20.5102 12.7973 20.7056C13.017 20.9009 13.1573 21.17 13.1917 21.462L13.2001 21.6024V22.8025C13.1998 23.1084 13.0827 23.4026 12.8727 23.6251C12.6627 23.8475 12.3757 23.9813 12.0703 23.9993C11.765 24.0172 11.4643 23.9178 11.2297 23.7215C10.9951 23.5252 10.8444 23.2467 10.8083 22.9429L10.7999 22.8025V21.6024C10.7999 21.2841 10.9263 20.9788 11.1514 20.7538C11.3764 20.5287 11.6817 20.4023 12 20.4023ZM19.5764 17.894L19.6893 17.9936L20.5293 18.8337C20.7446 19.0497 20.8696 19.3395 20.8789 19.6442C20.8882 19.949 20.7811 20.2459 20.5795 20.4746C20.3778 20.7033 20.0966 20.8467 19.7931 20.8756C19.4896 20.9045 19.1864 20.8168 18.9452 20.6303L18.8324 20.5307L17.9923 19.6906C17.7852 19.4838 17.6607 19.2086 17.6424 18.9165C17.624 18.6244 17.713 18.3357 17.8926 18.1047C18.0722 17.8737 18.33 17.7162 18.6175 17.6619C18.9051 17.6076 19.2026 17.6603 19.454 17.81L19.5764 17.894ZM6.00774 17.9936C6.21437 18.2002 6.3385 18.4752 6.35684 18.7669C6.37518 19.0585 6.28647 19.3469 6.10735 19.5778L6.00774 19.6906L5.16764 20.5307C4.95167 20.7459 4.66187 20.8709 4.35709 20.8802C4.05232 20.8895 3.75543 20.7824 3.52673 20.5808C3.29802 20.3791 3.15465 20.098 3.12574 19.7944C3.09682 19.4909 3.18453 19.1877 3.37104 18.9465L3.47066 18.8337L4.31075 17.9936C4.53581 17.7686 4.84101 17.6422 5.15924 17.6422C5.47747 17.6422 5.78268 17.7686 6.00774 17.9936ZM2.39894 10.8012C2.70483 10.8015 2.99904 10.9187 3.22147 11.1287C3.4439 11.3386 3.57775 11.6256 3.59568 11.931C3.6136 12.2364 3.51425 12.537 3.31792 12.7716C3.12159 13.0062 2.8431 13.1569 2.53935 13.1931L2.39894 13.2015H1.1988C0.892914 13.2011 0.598698 13.084 0.37627 12.874C0.153842 12.664 0.0199908 12.377 0.00206427 12.0717C-0.0158623 11.7663 0.0834893 11.4656 0.279819 11.231C0.476149 10.9965 0.754639 10.8457 1.05839 10.8096L1.1988 10.8012H2.39894ZM22.8012 10.8012C23.1071 10.8015 23.4013 10.9187 23.6237 11.1287C23.8462 11.3386 23.98 11.6256 23.9979 11.931C24.0159 12.2364 23.9165 12.537 23.7202 12.7716C23.5239 13.0062 23.2454 13.1569 22.9416 13.1931L22.8012 13.2015H21.6011C21.2952 13.2011 21.001 13.084 20.7785 12.874C20.5561 12.664 20.4223 12.377 20.4043 12.0717C20.3864 11.7663 20.4857 11.4656 20.6821 11.231C20.8784 10.9965 21.1569 10.8457 21.4606 10.8096L21.6011 10.8012H22.8012ZM5.05483 3.37237L5.16764 3.47198L6.00774 4.31208C6.22298 4.52805 6.34794 4.81786 6.35725 5.12263C6.36656 5.4274 6.25951 5.72429 6.05784 5.95299C5.85618 6.1817 5.57503 6.32507 5.27149 6.35398C4.96794 6.3829 4.66478 6.29519 4.42356 6.10868L4.31075 6.00907L3.47066 5.16897C3.26434 4.96217 3.14054 4.68721 3.12246 4.39565C3.10437 4.10408 3.19326 3.81594 3.37244 3.58522C3.55162 3.35451 3.8088 3.19707 4.09577 3.14242C4.38273 3.08777 4.67978 3.13966 4.93122 3.28836L5.05483 3.37237ZM20.5293 3.47198C20.736 3.67864 20.8601 3.95359 20.8784 4.24525C20.8968 4.53692 20.8081 4.82525 20.629 5.05616L20.5293 5.16897L19.6893 6.00907C19.4733 6.22431 19.1835 6.34927 18.8787 6.35858C18.5739 6.36788 18.277 6.26084 18.0483 6.05917C17.8196 5.85751 17.6763 5.57636 17.6473 5.27281C17.6184 4.96927 17.7061 4.66611 17.8927 4.42489L17.9923 4.31208L18.8324 3.47198C19.0574 3.24699 19.3626 3.1206 19.6809 3.1206C19.9991 3.1206 20.3043 3.24699 20.5293 3.47198ZM12 0C12.294 3.8777e-05 12.5777 0.107959 12.7973 0.303292C13.017 0.498625 13.1573 0.767784 13.1917 1.05972L13.2001 1.20013V2.40027C13.1998 2.70616 13.0827 3.00037 12.8727 3.2228C12.6627 3.44523 12.3757 3.57908 12.0703 3.597C11.765 3.61493 11.4643 3.51558 11.2297 3.31925C10.9951 3.12292 10.8444 2.84443 10.8083 2.54068L10.7999 2.40027V1.20013C10.7999 0.881838 10.9263 0.576579 11.1514 0.351511C11.3764 0.126442 11.6817 0 12 0ZM12 6.00066C13.1757 6.0006 14.3256 6.34593 15.3068 6.99377C16.2879 7.64162 17.0571 8.56342 17.5189 9.6447C17.9806 10.726 18.1146 11.9191 17.904 13.0758C17.6935 14.2326 17.1478 15.302 16.3347 16.1512C15.5216 17.0005 14.4769 17.5921 13.3304 17.8527C12.1839 18.1133 10.9861 18.0314 9.88577 17.6171C8.78545 17.2027 7.83108 16.4743 7.14121 15.5222C6.45134 14.5702 6.05636 13.4364 6.00534 12.2618L5.99934 12.0013L6.00534 11.7409C6.07245 10.196 6.73335 8.7367 7.85021 7.66724C8.96707 6.59778 10.4537 6.00075 12 6.00066Z" fill="#FFEA00" stroke="#FFA71B" stroke-width="2.40027" mask="url(#path-1-inside-1_470_533)"/>
</svg>
