<svg width="20" height="20" viewBox="0 0 20 20" fill="none" xmlns="http://www.w3.org/2000/svg">
<path d="M10.0341 19.0003C8.85222 19.0047 7.68104 18.7763 6.58742 18.3281C5.49381 17.8799 4.49919 17.2207 3.66034 16.3881C2.8215 15.5555 2.15486 14.5658 1.69849 13.4756C1.24213 12.3853 1.00496 11.2159 1.00055 10.034C0.996132 8.85209 1.22455 7.68091 1.67276 6.5873C2.12097 5.49368 2.78019 4.49906 3.61279 3.66022C4.44539 2.82137 5.43506 2.15474 6.52529 1.69837C7.61553 1.242 8.78497 1.00484 9.96686 1.00042L10.0005 10.0004L10.0341 19.0003Z" fill="#FFCC00"/>
<path d="M9.96784 19.0003C11.1497 19.0047 12.3209 18.7763 13.4145 18.3281C14.5081 17.8799 15.5028 17.2207 16.3416 16.3881C17.1805 15.5555 17.8471 14.5658 18.3035 13.4756C18.7598 12.3853 18.997 11.2159 19.0014 10.034C19.0058 8.85209 18.7774 7.68091 18.3292 6.5873C17.881 5.49368 17.2218 4.49906 16.3892 3.66022C15.5566 2.82137 14.5669 2.15474 13.4767 1.69837C12.3864 1.242 11.217 1.00484 10.0351 1.00042L10.0015 10.0004L9.96784 19.0003Z" fill="#DFDFDF"/>
</svg>
