<svg width="86" height="86" viewBox="0 0 86 86" fill="none" xmlns="http://www.w3.org/2000/svg">
<circle cx="42.9828" cy="42.9828" r="42.9828" fill="#DCEEFF"/>
<g clip-path="url(#clip0_438_525)">
<path d="M61.2179 24.7476C62.0138 25.6883 62.1224 27.027 61.5435 28.7637C60.9646 30.5004 59.9877 32.0562 58.6129 33.431L54.244 37.7999L58.5857 56.6862C58.6762 57.0299 58.5676 57.3284 58.2601 57.5817L54.7867 60.1867C54.6601 60.2953 54.4882 60.3495 54.2712 60.3495C54.1988 60.3495 54.1355 60.3405 54.0812 60.3224C53.8099 60.2681 53.6199 60.1234 53.5114 59.8882L45.9405 46.1033L38.9124 53.1315L40.3506 58.3958C40.4411 58.7033 40.3687 58.9837 40.1335 59.237L37.5285 61.842C37.3657 62.0048 37.1577 62.0862 36.9044 62.0862H36.8501C36.5788 62.05 36.3617 61.9324 36.1989 61.7334L31.0702 54.8953L24.2321 49.7666C24.0331 49.64 23.9155 49.432 23.8793 49.1425C23.8612 48.9074 23.9426 48.6812 24.1235 48.4641L26.7285 45.832C26.8914 45.6692 27.0994 45.5878 27.3527 45.5878C27.4612 45.5878 27.5336 45.5968 27.5697 45.6149L32.8341 47.0531L39.8622 40.025L26.0773 32.4541C25.824 32.3094 25.6703 32.0923 25.616 31.8029C25.5798 31.5134 25.6612 31.2692 25.8602 31.0702L29.3336 27.5969C29.5868 27.3617 29.8582 27.2893 30.1476 27.3798L48.1928 31.6943L52.5345 27.3527C53.9094 25.9778 55.4651 25.0009 57.2018 24.422C58.9385 23.8431 60.2772 23.9517 61.2179 24.7476Z" fill="#0074E0"/>
</g>
<defs>
<clipPath id="clip0_438_525">
<rect width="38.2069" height="38.2069" fill="white" transform="translate(23.8793 23.8793)"/>
</clipPath>
</defs>
</svg>
