<svg width="86" height="86" viewBox="0 0 86 86" fill="none" xmlns="http://www.w3.org/2000/svg">
<circle cx="43.0169" cy="42.974" r="42.9828" fill="#FFE7E8"/>
<g clip-path="url(#clip0_438_551)">
<path d="M59.2517 61.2114C59.1527 61.4679 58.978 61.6881 58.7508 61.8428C58.5236 61.9975 58.2546 62.0794 57.9797 62.0774C57.8173 62.1045 57.6549 62.1045 57.4926 62.0774L41.823 55.474L26.1263 62.0774C25.9607 62.1422 25.7839 62.1737 25.6061 62.1702C25.4284 62.1666 25.253 62.128 25.0901 62.0566C24.9273 61.9852 24.7801 61.8825 24.6569 61.7541C24.5338 61.6258 24.4372 61.4745 24.3726 61.3088L24.3672 61.2926C24.2747 61.1176 24.2217 60.9245 24.212 60.7268C24.2022 60.5292 24.236 60.3317 24.3108 60.1485C24.3856 59.9653 24.4997 59.8007 24.6451 59.6664C24.7904 59.5321 24.9635 59.4313 25.152 59.3711L38.2777 53.9585L25.152 48.5458C24.9739 48.4917 24.8089 48.4014 24.6673 48.2805C24.5257 48.1597 24.4105 48.011 24.329 47.8436C24.2475 47.6762 24.2014 47.4939 24.1936 47.3079C24.1858 47.1219 24.2165 46.9363 24.2837 46.7627C24.3509 46.5891 24.4532 46.4312 24.5842 46.2989C24.7152 46.1667 24.872 46.0629 25.045 45.994C25.2179 45.9251 25.4032 45.8927 25.5893 45.8987C25.7753 45.9047 25.9582 45.949 26.1263 46.0289L41.823 52.5512L57.5196 46.0289C57.6878 45.949 57.8706 45.9047 58.0566 45.8987C58.2427 45.8927 58.428 45.9251 58.601 45.994C58.7739 46.0629 58.9308 46.1667 59.0618 46.2989C59.1928 46.4312 59.2951 46.5891 59.3623 46.7627C59.4295 46.9363 59.4601 47.1219 59.4523 47.3079C59.4445 47.4939 59.3984 47.6762 59.3169 47.8436C59.2354 48.011 59.1203 48.1597 58.9787 48.2805C58.837 48.4014 58.672 48.4917 58.4939 48.5458L45.3412 53.9585L58.4668 59.3711C58.6446 59.4331 58.8075 59.5316 58.9451 59.6602C59.0827 59.7888 59.1919 59.9447 59.2657 60.1179C59.3396 60.2911 59.3765 60.4778 59.3741 60.6661C59.3717 60.8544 59.33 61.0401 59.2517 61.2114ZM54.0014 32.9303V34.1482C53.9956 34.7245 53.806 35.2839 53.4602 35.7449C51.9467 37.4164 50.319 38.9808 48.5888 40.4269V43.5662C48.5907 43.8411 48.5089 44.11 48.3542 44.3373C48.1995 44.5645 47.9792 44.7392 47.7227 44.8382L41.8771 47.1927H41.6876L35.8149 44.8382C35.5787 44.7227 35.3812 44.5409 35.2466 44.315C35.1121 44.0891 35.0462 43.8289 35.0572 43.5662V40.4269C33.3083 38.9828 31.6625 37.4183 30.1317 35.7449C29.8051 35.2773 29.6346 34.7185 29.6445 34.1482V32.9303C29.8634 30.0213 31.097 27.2816 33.1299 25.1893C35.1628 23.097 37.866 21.7851 40.7675 21.4826H42.7972C45.7153 21.762 48.4406 23.0643 50.491 25.1593C52.5414 27.2543 53.7848 30.0069 54.0014 32.9303ZM37.7635 32.3079C37.7635 31.5901 37.4784 30.9018 36.9708 30.3942C36.4633 29.8867 35.7749 29.6016 35.0572 29.6016C34.3394 29.6016 33.651 29.8867 33.1435 30.3942C32.636 30.9018 32.3508 31.5901 32.3508 32.3079C32.3508 33.0257 32.636 33.714 33.1435 34.2215C33.651 34.7291 34.3394 35.0142 35.0572 35.0142C35.7749 35.0142 36.4633 34.7291 36.9708 34.2215C37.4784 33.714 37.7635 33.0257 37.7635 32.3079ZM40.4698 40.4269C40.4698 40.068 40.3272 39.7238 40.0735 39.47C39.8197 39.2163 39.4755 39.0737 39.1166 39.0737C38.7578 39.0737 38.4136 39.2163 38.1598 39.47C37.906 39.7238 37.7635 40.068 37.7635 40.4269V41.78C37.7635 42.1389 37.906 42.4831 38.1598 42.7368C38.4136 42.9906 38.7578 43.1332 39.1166 43.1332C39.4755 43.1332 39.8197 42.9906 40.0735 42.7368C40.3272 42.4831 40.4698 42.1389 40.4698 41.78V40.4269ZM45.8824 40.4269C45.8824 40.068 45.7399 39.7238 45.4861 39.47C45.2324 39.2163 44.8882 39.0737 44.5293 39.0737C44.1704 39.0737 43.8262 39.2163 43.5725 39.47C43.3187 39.7238 43.1761 40.068 43.1761 40.4269V41.78C43.1761 42.1389 43.3187 42.4831 43.5725 42.7368C43.8262 42.9906 44.1704 43.1332 44.5293 43.1332C44.8882 43.1332 45.2324 42.9906 45.4861 42.7368C45.7399 42.4831 45.8824 42.1389 45.8824 41.78V40.4269ZM51.2951 32.3079C51.2951 31.5901 51.01 30.9018 50.5024 30.3942C49.9949 29.8867 49.3065 29.6016 48.5888 29.6016C47.871 29.6016 47.1826 29.8867 46.6751 30.3942C46.1676 30.9018 45.8824 31.5901 45.8824 32.3079C45.8824 33.0257 46.1676 33.714 46.6751 34.2215C47.1826 34.7291 47.871 35.0142 48.5888 35.0142C49.3065 35.0142 49.9949 34.7291 50.5024 34.2215C51.01 33.714 51.2951 33.0257 51.2951 32.3079Z" fill="#EF2D28"/>
</g>
<defs>
<clipPath id="clip0_438_551">
<rect width="40.5948" height="40.5948" fill="white" transform="translate(21.5256 21.4826)"/>
</clipPath>
</defs>
</svg>
