<svg width="86" height="87" viewBox="0 0 86 87" fill="none" xmlns="http://www.w3.org/2000/svg">
<circle cx="42.9828" cy="43.6468" r="42.9828" fill="#FFEEDE"/>
<path d="M42.9828 49.0197C45.9501 49.0197 48.3556 46.6142 48.3556 43.6468C48.3556 40.6795 45.9501 38.274 42.9828 38.274C40.0154 38.274 37.6099 40.6795 37.6099 43.6468C37.6099 46.6142 40.0154 49.0197 42.9828 49.0197Z" fill="#FF881B"/>
<path d="M59.446 27.1835C55.0797 22.8172 49.1577 20.3642 42.9828 20.3642C36.8078 20.3642 30.8858 22.8172 26.5195 27.1835C22.1531 31.5499 19.7001 37.4719 19.7001 43.6468C19.7001 49.8218 22.1531 55.7438 26.5195 60.1101C30.8858 64.4764 36.8078 66.9294 42.9828 66.9294C49.1577 66.9294 55.0797 64.4764 59.446 60.1101C63.8124 55.7438 66.2654 49.8218 66.2654 43.6468C66.2654 37.4719 63.8124 31.5499 59.446 27.1835ZM52.6091 43.6468C52.6067 45.5578 52.0365 47.4249 50.9709 49.0111C49.9052 50.5973 48.3922 51.8311 46.624 52.5557L52.4121 60.1672C49.5406 61.8088 46.2904 62.6723 42.9828 62.6723C39.6752 62.6723 36.4249 61.8088 33.5534 60.1672L39.3415 52.5557C37.1742 51.6699 35.404 50.0246 34.3623 47.9278C33.3206 45.831 33.0788 43.4264 33.6821 41.1641L24.114 41.1742C24.4679 38.4948 25.3877 35.9213 26.8126 33.6248C28.2374 31.3282 30.1346 29.361 32.3781 27.854L36.6249 36.4271C38.3798 34.8764 40.6409 34.0205 42.9828 34.0205C45.3246 34.0205 47.5857 34.8764 49.3406 36.4271L53.5874 27.854C55.8309 29.361 57.7281 31.3282 59.1529 33.6248C60.5778 35.9213 61.4977 38.4948 61.8515 41.1742L52.2834 41.1641C52.4996 41.974 52.6091 42.8086 52.6091 43.6468Z" fill="#FF881B"/>
</svg>
