<svg width="86" height="86" viewBox="0 0 86 86" fill="none" xmlns="http://www.w3.org/2000/svg">
<circle cx="42.9828" cy="42.974" r="42.9828" fill="#FFE7E8"/>
<g clip-path="url(#clip0_438_539)">
<path fill-rule="evenodd" clip-rule="evenodd" d="M61.3303 26.2148C61.6494 26.5346 61.8286 26.9679 61.8286 27.4197C61.8286 27.8714 61.6494 28.3048 61.3303 28.6245L59.1661 30.7887V36.7108C59.166 37.0908 59.0389 37.46 58.805 37.7596C58.5712 38.0592 58.2439 38.2721 57.8753 38.3646L53.839 39.3743V42.0679C53.8386 42.1938 53.8631 42.3185 53.9112 42.4349C53.9592 42.5513 54.0297 42.657 54.1187 42.7461C54.2078 42.8351 54.3135 42.9056 54.4299 42.9536C54.5463 43.0016 54.671 43.0262 54.7969 43.0258C56.6621 43.0258 58.4509 43.7668 59.7698 45.0857C61.0887 46.4046 61.8297 48.1934 61.8297 50.0586C61.8297 51.9238 61.0887 53.7126 59.7698 55.0316C58.4509 56.3505 56.6621 57.0914 54.7969 57.0914H48.1707V57.9838C48.1707 59.0695 47.7394 60.1107 46.9717 60.8784C46.204 61.6461 45.1628 62.0774 44.0771 62.0774H28.2294C27.1437 62.0774 26.1025 61.6461 25.3348 60.8784C24.5671 60.1107 24.1358 59.0695 24.1358 57.9838V34.2082C24.1358 32.3987 24.8547 30.6634 26.1342 29.3839C27.4136 28.1044 29.149 27.3855 30.9585 27.3855H41.3453C43.1548 27.3855 44.8902 28.1044 46.1697 29.3839C47.4492 30.6634 48.168 32.3987 48.168 34.2082V53.6801H54.7941C55.7546 53.6801 56.6758 53.2985 57.3549 52.6194C58.0341 51.9402 58.4156 51.0191 58.4156 50.0586C58.4156 49.0981 58.0341 48.177 57.3549 47.4978C56.6758 46.8187 55.7546 46.4371 54.7941 46.4371C53.6361 46.4371 52.5254 45.9771 51.7066 45.1582C50.8877 44.3393 50.4276 43.2287 50.4276 42.0706V35.4063C50.4276 34.956 50.605 34.5221 50.9243 34.2L58.9205 26.2175C59.0789 26.0591 59.2669 25.9334 59.4739 25.8477C59.6809 25.7619 59.9027 25.7178 60.1267 25.7178C60.3508 25.7178 60.5726 25.7619 60.7796 25.8477C60.9865 25.9334 61.1746 26.0591 61.333 26.2175L61.3303 26.2148ZM26.8622 43.3669V37.1911H45.4416V43.3669H26.8622ZM40.1527 49.6875C41.0942 49.6875 41.8584 50.4516 41.8584 51.3931V54.0567C41.8584 54.5091 41.6787 54.9429 41.3588 55.2628C41.0389 55.5827 40.6051 55.7624 40.1527 55.7624C39.7003 55.7624 39.2665 55.5827 38.9466 55.2628C38.6268 54.9429 38.4471 54.5091 38.4471 54.0567V51.3931C38.4471 50.4516 39.2112 49.6875 40.1527 49.6875Z" fill="#EF2D28"/>
</g>
<defs>
<clipPath id="clip0_438_539">
<rect width="38.2069" height="38.2069" fill="white" transform="translate(23.8793 23.8705)"/>
</clipPath>
</defs>
</svg>
