<svg width="86" height="87" viewBox="0 0 86 87" fill="none" xmlns="http://www.w3.org/2000/svg">
<circle cx="43.0169" cy="43.3099" r="42.9828" fill="#D9FFE6"/>
<g clip-path="url(#clip0_438_563)">
<path d="M43.0169 31.3703C43.8613 31.3703 44.6712 31.0348 45.2683 30.4377C45.8654 29.8406 46.2008 29.0308 46.2008 28.1863C46.2008 27.3419 45.8654 26.5321 45.2683 25.935C44.6712 25.3379 43.8613 25.0024 43.0169 25.0024C42.1725 25.0024 41.3627 25.3379 40.7656 25.935C40.1685 26.5321 39.833 27.3419 39.833 28.1863C39.833 29.0308 40.1685 29.8406 40.7656 30.4377C41.3627 31.0348 42.1725 31.3703 43.0169 31.3703ZM43.0169 31.3703V61.6174M35.0572 48.0858C31.8732 48.0858 29.4853 46.4938 27.0974 43.3099H26.3014C26.3014 50.7603 31.1728 57.0692 37.9068 59.2294C39.833 59.8662 41.425 60.0254 42.8179 61.6174H43.2159C44.6089 60.0254 46.2008 59.8662 48.1287 59.2294C54.8595 57.0692 59.7324 50.7603 59.7324 43.3099H58.9365C56.5485 46.4938 54.1606 48.0858 50.9767 48.0858M35.0572 36.1461C35.0572 36.1461 39.037 37.7381 43.0169 37.7381C46.9968 37.7381 50.9767 36.1461 50.9767 36.1461" stroke="#3C9158" stroke-width="1.5"/>
</g>
<defs>
<clipPath id="clip0_438_563">
<rect width="38.2069" height="38.2069" fill="white" transform="translate(23.9135 24.2065)"/>
</clipPath>
</defs>
</svg>
