<svg width="86" height="87" viewBox="0 0 86 87" fill="none" xmlns="http://www.w3.org/2000/svg">
<circle cx="42.9828" cy="43.638" r="42.9828" fill="#D9FFE6"/>
<path d="M49.5057 23.9869C49.5057 23.9869 50.6894 25.9589 50.3704 26.9319C50.085 27.8033 48.3976 27.7126 48.1877 28.6058C48.0282 29.3152 48.7921 30.4099 49.2371 30.9699H49.8079C50.404 30.0288 50.8657 29.1415 50.9833 28.0367C51.6465 28.7301 51.8563 29.824 51.0756 30.9699H51.7808C52.4524 30.169 53.8124 28.3758 53.5605 27.2181C53.1996 25.5282 49.5057 23.9869 49.5057 23.9869ZM30.2223 26.434C28.7531 26.434 27.7507 26.8488 27.2428 27.6102C26.7349 28.3716 26.7803 29.2044 26.7803 29.876V30.8859H28.2914V29.876C28.2914 29.2044 28.3367 28.694 28.5004 28.448C28.6641 28.202 29.005 27.9452 30.2223 27.9452H35.5951C36.4346 27.9452 37.526 28.9912 37.526 30.0095V40.2548H39.0371V37.8539H47.7092L47.8435 36.3427H39.0371V30.0095C39.0371 28.0744 37.442 26.434 35.5951 26.434H30.2223ZM26.1926 32.3131V33.8242H28.879V32.3131H26.1926ZM49.7156 32.481L48.5151 45.7452H52.2257L51.0252 32.481H49.7156ZM27.5358 35.1674C26.6963 35.1674 25.8669 35.4529 25.2675 35.9818C24.6672 36.519 24.2618 37.283 24.2618 38.4415V63.2909H30.8099V38.4415C30.8099 37.2914 30.4069 36.519 29.8025 35.9818C29.2048 35.4529 28.3753 35.1674 27.5358 35.1674ZM53.3842 41.7156L53.5186 43.2267H55.7433C56.9606 43.2267 57.7329 43.5205 58.2282 44.0158C58.7235 44.5195 59.0173 45.3171 59.0173 46.5679V49.9176C59.2524 49.8252 59.5043 49.7749 59.7729 49.7749C60.0415 49.7749 60.2934 49.8252 60.5285 49.9176V46.5679C60.5285 45.0652 60.1507 43.8144 59.3028 42.9581C58.4549 42.0934 57.2124 41.7156 55.7433 41.7156H53.3842ZM36.3507 41.8835V43.0588H40.2124V41.8835H36.3507ZM38.3235 44.5699C35.8302 44.5699 33.639 45.804 32.321 47.7013V49.1032H44.242V47.5837C42.9156 45.762 40.7665 44.5699 38.3235 44.5699ZM45.7531 47.2563V56.4909H54.9877V47.2563H45.7531ZM32.321 50.6144V51.7897H44.242V50.6144H32.321ZM59.7729 51.286C59.4371 51.286 59.1852 51.5378 59.1852 51.8736C59.1852 52.2094 59.4371 52.4613 59.7729 52.4613C60.1087 52.4613 60.3606 52.2094 60.3606 51.8736C60.3606 51.5378 60.1087 51.286 59.7729 51.286ZM32.321 53.3008V56.0376C32.8751 56.8351 33.5803 57.5151 34.3946 58.0356L32.4889 61.8637V63.2909H35.6371V61.8637H34.1763L35.7546 58.7156C36.5521 59.0094 37.4168 59.1773 38.3235 59.1773C39.2302 59.1773 40.0949 59.0094 40.8924 58.7156L42.4707 61.8637H41.0099V63.2909H46.3828V61.8637H44.1665L42.2524 58.0356C43.0247 57.5403 43.7047 56.9023 44.242 56.1635V53.3008H32.321ZM59.0173 53.8297V56.4909H60.5285V53.8297C60.2934 53.922 60.0415 53.9724 59.7729 53.9724C59.5043 53.9724 59.2524 53.922 59.0173 53.8297ZM49.2539 58.002L53.4178 63.2909H56.8598L52.6959 58.002H49.2539ZM54.6267 58.002L58.7907 63.2909H61.7038V62.5438L58.0687 58.002H54.6267ZM59.9996 58.002L61.7038 60.1344V58.002H59.9996ZM48.4396 59.3956V63.2909H51.487L48.4396 59.3956Z" fill="#1C9E48"/>
</svg>
