<svg width="86" height="87" viewBox="0 0 86 87" fill="none" xmlns="http://www.w3.org/2000/svg">
<circle cx="43.0169" cy="43.3021" r="42.9828" fill="#E5EBFF"/>
<path d="M25.1075 29.7705V25.7906H31.0773V29.7705H25.1075ZM23.1175 65.5894H41.027V57.6297H24.7095L23.1175 65.5894ZM31.326 40.3669L28.4904 37.581L32.719 33.3524L35.5547 36.1383L31.326 40.3669ZM25.5055 53.6498H41.027V45.69H27.0974L25.5055 53.6498ZM43.0169 35.7403C40.2642 35.7403 37.9181 34.7699 35.9785 32.829C34.039 30.8882 33.0686 28.542 33.0672 25.7906H52.9667C52.9667 28.5433 51.9962 30.8901 50.0554 32.831C48.1145 34.7719 45.7684 35.7416 43.0169 35.7403ZM41.027 43.7001V37.7302H45.0069V43.7001H41.027ZM45.0069 65.5894H62.9164L61.3244 57.6297H45.0069V65.5894ZM45.0069 53.6498H60.5284L58.9365 45.69H45.0069V53.6498ZM54.7079 40.3669L50.529 36.1383L53.3149 33.3524L57.5435 37.5312L54.7079 40.3669ZM54.9566 29.7705V25.7906H60.9264V29.7705H54.9566Z" fill="#0F00E0"/>
</svg>
