<svg width="86" height="87" viewBox="0 0 86 87" fill="none" xmlns="http://www.w3.org/2000/svg">
<circle cx="42.9828" cy="43.3099" r="42.9828" fill="#DCD9FF"/>
<path d="M25.0733 33.3602V25.4004L33.033 29.3803L25.0733 33.3602ZM54.9224 33.3602V25.4004L62.8822 29.3803L54.9224 33.3602ZM40.9928 31.3702V23.4105L48.9526 27.3904L40.9928 31.3702ZM37.0129 62.9606C35.2883 62.7948 33.5969 62.546 31.9386 62.2144C30.2803 61.8827 28.7958 61.4768 27.4851 60.9965C26.1744 60.5163 25.1131 59.9604 24.3012 59.3289C23.4893 58.6975 23.0833 58.001 23.0833 57.2395V39.33C23.0833 38.5009 23.606 37.7301 24.6514 37.0177C25.6968 36.3053 27.1143 35.6752 28.9039 35.1273C30.6935 34.5794 32.7996 34.1482 35.222 33.8338C37.6444 33.5194 40.2313 33.3615 42.9828 33.3602C45.7342 33.3589 48.3211 33.5167 50.7435 33.8338C53.166 34.1509 55.272 34.582 57.0616 35.1273C58.8512 35.6725 60.2694 36.3027 61.3161 37.0177C62.3628 37.7328 62.8848 38.5035 62.8822 39.33V57.2395C62.8822 58.0023 62.4762 58.6988 61.6643 59.3289C60.8524 59.9591 59.7911 60.5149 58.4804 60.9965C57.1697 61.4781 55.6852 61.884 54.0269 62.2144C52.3687 62.5447 50.6772 62.7934 48.9526 62.9606V53.2596H37.0129V62.9606ZM42.9828 41.32C46.1998 41.32 48.9778 41.1289 51.3166 40.7469C53.6555 40.3648 55.5207 39.9257 56.9124 39.4295C56.9124 39.2637 55.6521 38.8743 53.1315 38.2614C50.6109 37.6485 47.228 37.3414 42.9828 37.3401C38.7375 37.3387 35.3546 37.6459 32.8341 38.2614C30.3135 38.877 29.0532 39.2663 29.0532 39.4295C30.4461 39.927 32.3114 40.3668 34.6489 40.7488C36.9864 41.1309 39.7644 41.3213 42.9828 41.32Z" fill="#392DCA"/>
</svg>
