<svg width="86" height="86" viewBox="0 0 86 86" fill="none" xmlns="http://www.w3.org/2000/svg">
<circle cx="43.0169" cy="42.9828" r="42.9828" fill="#FFDDE6"/>
<path d="M43.0169 23.0833C32.0723 23.0833 23.1175 32.0381 23.1175 42.9828V62.8822H62.9164V42.9828C62.9164 32.0381 53.9616 23.0833 43.0169 23.0833ZM33.2662 30.4262C35.5147 28.6708 38.1965 27.5568 41.027 27.2025V31.2222C39.2162 31.5207 37.5446 32.2371 36.1118 33.252L33.2662 30.4262ZM49.922 33.252C48.4588 32.2114 46.778 31.5174 45.0069 31.2222V27.2025C47.9122 27.5607 50.5588 28.7149 52.7677 30.4262L49.922 33.252ZM30.4604 33.2321L33.2861 36.0777C32.2456 37.541 31.5515 39.2217 31.2564 40.9928H27.2367C27.5949 38.0875 28.7491 35.4409 30.4604 33.2321ZM31.0773 44.9727V49.9476H27.0974V44.9727H31.0773ZM27.0974 58.9023V53.9275H31.0773V58.9023H27.0974ZM52.7478 36.0777L55.5735 33.2321C57.3289 35.4805 58.4429 38.1623 58.7972 40.9928H54.7775C54.4824 39.2217 53.7883 37.541 52.7478 36.0777ZM54.9566 44.9727H58.9365V49.9476H54.9566V44.9727ZM54.9566 58.9023V53.9275H58.9365V58.9023H54.9566Z" fill="#FF3269"/>
</svg>
